<svg xmlns="http://www.w3.org/2000/svg" xmlns:xlink="http://www.w3.org/1999/xlink" version="1.1" x="0px" y="0px" viewBox="0 0 100 100" enable-background="new 0 0 100 100" xml:space="preserve">
	<path fill="white" d="M93.903,76.192l-35.55-61.575c-3.538-6.127-12.382-6.127-15.92,0L6.883,76.192c-3.538,6.127,0.884,13.787,7.96,13.787  h71.101C93.019,89.979,97.441,82.319,93.903,76.192z M49.99,80.939c-2.53,0-4.265-1.952-4.265-4.482  c0-2.603,1.807-4.482,4.265-4.482c2.603,0,4.265,1.88,4.265,4.482C54.256,78.987,52.593,80.939,49.99,80.939z M56.657,34.754  l-3.973,29.069c-0.184,1.347-1.334,2.351-2.694,2.351c-1.359,0-2.51-1.004-2.694-2.351l-3.973-29.069  c-0.223-1.633,1.046-3.087,2.694-3.087h7.945C55.611,31.668,56.88,33.122,56.657,34.754z" />
</svg>
